MoBL_ARMS_module2_4_elbow_flexion_states	
version=1	
nRows=294	
nColumns=2	
inDegrees=yes	
	
# SIMM Motion File Header:	
name MoBL_ARMS_module2_4_elbow_flexion_states	
datacolumns 2	
datarows 294	
otherdata 1	
range 3.759339773 4.471934569	
endheader	
time	elbow_flexion
3.759339773	26.60369926
3.761771837	26.60193805
3.764203901	26.60016918
3.766635965	26.59839325
3.769068029	26.59661082
3.771500094	26.59482246
3.773932158	26.59302876
3.776364222	26.59123026
3.778796286	26.58942756
3.78122835	26.5876212
3.783660414	26.58581175
3.786092478	26.58399978
3.788524543	26.58218583
3.790956607	26.58037047
3.793388671	26.57855424
3.795820735	26.57673769
3.798252799	26.57492136
3.800684863	26.5731058
3.803116928	26.57129155
3.805548992	26.56947913
3.807981056	26.56766908
3.81041312	26.56586193
3.812845184	26.56405818
3.815277248	26.56225837
3.817709312	26.560463
3.820141377	26.55867258
3.822573441	26.55688762
3.825005505	26.55510861
3.827437569	26.55333605
3.829869633	26.55157042
3.832301697	26.54981221
3.834733761	26.5480619
3.837165826	26.54631995
3.83959789	26.54458685
3.842029954	26.54286304
3.844462018	26.54114898
3.846894082	26.53944513
3.849326146	26.53775193
3.851758211	26.53606982
3.854190275	26.53439923
3.856622339	26.53274058
3.859054403	26.5310943
3.861486467	26.52946079
3.863918531	26.52784047
3.866350595	26.52623374
3.86878266	26.52464099
3.871214724	26.52306261
3.873646788	26.52149897
3.876078852	26.51995046
3.878510916	26.51841743
3.88094298	26.51690026
3.883375044	26.51539929
3.885807109	26.51391486
3.888239173	26.51244732
3.890671237	26.510997
3.893103301	26.50956423
3.895535365	26.50814931
3.897967429	26.50675256
3.900399494	26.50537429
3.902831558	26.50401478
3.905263622	26.50267432
3.907695686	26.50135321
3.91012775	26.5000517
3.912559814	26.49877006
3.914991878	26.49750855
3.917423943	26.49626742
3.919856007	26.49504692
3.922288071	26.49384726
3.924720135	26.4926687
3.927152199	26.49151143
3.929584263	26.49037568
3.932016328	26.48926165
3.934448392	26.48816953
3.936880456	26.48709951
3.93931252	26.48605177
3.941744584	26.48502648
3.944176648	26.48402382
3.946608712	26.48304393
3.949040777	26.48208696
3.951472841	26.48115306
3.953904905	26.48024236
3.956336969	26.47935499
3.958769033	26.47849106
3.961201097	26.47765068
3.963633161	26.47683397
3.966065226	26.476041
3.96849729	26.47527187
3.970929354	26.47452667
3.973361418	26.47380545
3.975793482	26.47310829
3.978225546	26.47243525
3.980657611	26.47178637
3.983089675	26.47116169
3.985521739	26.47056125
3.987953803	26.46998507
3.990385867	26.46943318
3.992817931	26.46890559
3.995249995	26.4684023
3.99768206	26.46792331
4.000114124	26.46746861
4.002546188	26.46703818
4.004978252	26.466632
4.007410316	26.46625005
4.00984238	26.46589227
4.012274444	26.46555863
4.014706509	26.46524907
4.017138573	26.46496354
4.019570637	26.46470196
4.022002701	26.46446428
4.024434765	26.4642504
4.026866829	26.46406025
4.029298894	26.46389372
4.031730958	26.46375073
4.034163022	26.46363117
4.036595086	26.46353493
4.03902715	26.46346188
4.041459214	26.46341191
4.043891278	26.46338488
4.046323343	26.46338067
4.048755407	26.46339912
4.051187471	26.4634401
4.053619535	26.46350344
4.056051599	26.46358899
4.058483663	26.46369658
4.060915728	26.46382605
4.063347792	26.46397722
4.065779856	26.4641499
4.06821192	26.46434392
4.070643984	26.46455907
4.073076048	26.46479517
4.075508112	26.46505201
4.077940177	26.46532938
4.080372241	26.46562708
4.082804305	26.46594488
4.085236369	26.46628257
4.087668433	26.46663993
4.090100497	26.46701671
4.092532561	26.46741269
4.094964626	26.46782764
4.09739669	26.46826129
4.099828754	26.46871343
4.102260818	26.46918378
4.104692882	26.46967209
4.107124946	26.47017812
4.109557011	26.47070159
4.111989075	26.47124224
4.114421139	26.4717998
4.116853203	26.47237401
4.119285267	26.47296457
4.121717331	26.47357123
4.124149395	26.47419369
4.12658146	26.47483167
4.129013524	26.47548488
4.131445588	26.47615303
4.133877652	26.47683583
4.136309716	26.47753299
4.13874178	26.47824421
4.141173844	26.47896918
4.143605909	26.4797076
4.146037973	26.48045918
4.148470037	26.4812236
4.150902101	26.48200055
4.153334165	26.48278973
4.155766229	26.48359082
4.158198294	26.48440351
4.160630358	26.48522749
4.163062422	26.48606243
4.165494486	26.48690802
4.16792655	26.48776395
4.170358614	26.48862989
4.172790678	26.48950552
4.175222743	26.49039052
4.177654807	26.49128456
4.180086871	26.49218733
4.182518935	26.4930985
4.184950999	26.49401774
4.187383063	26.49494473
4.189815127	26.49587915
4.192247192	26.49682067
4.194679256	26.49776896
4.19711132	26.49872371
4.199543384	26.49968457
4.201975448	26.50065124
4.204407512	26.50162338
4.206839577	26.50260067
4.209271641	26.50358279
4.211703705	26.50456942
4.214135769	26.50556022
4.216567833	26.50655489
4.218999897	26.50755309
4.221431961	26.50855451
4.223864026	26.50955883
4.22629609	26.51056573
4.228728154	26.5115749
4.231160218	26.51258602
4.233592282	26.51359877
4.236024346	26.51461285
4.238456411	26.51562794
4.240888475	26.51664374
4.243320539	26.51765993
4.245752603	26.51867621
4.248184667	26.51969228
4.250616731	26.52070783
4.253048795	26.52172257
4.25548086	26.52273619
4.257912924	26.52374841
4.260344988	26.52475893
4.262777052	26.52576745
4.265209116	26.52677369
4.26764118	26.52777737
4.270073244	26.5287782
4.272505309	26.52977589
4.274937373	26.53077018
4.277369437	26.53176078
4.279801501	26.53274743
4.282233565	26.53372984
4.284665629	26.53470777
4.287097694	26.53568094
4.289529758	26.53664909
4.291961822	26.53761196
4.294393886	26.5385693
4.29682595	26.53952087
4.299258014	26.5404664
4.301690078	26.54140566
4.304122143	26.54233841
4.306554207	26.5432644
4.308986271	26.54418341
4.311418335	26.54509521
4.313850399	26.54599955
4.316282463	26.54689624
4.318714527	26.54778503
4.321146592	26.54866572
4.323578656	26.5495381
4.32601072	26.55040196
4.328442784	26.55125709
4.330874848	26.55210329
4.333306912	26.55294036
4.335738977	26.55376812
4.338171041	26.55458637
4.340603105	26.55539493
4.343035169	26.55619362
4.345467233	26.55698226
4.347899297	26.55776068
4.350331361	26.55852871
4.352763426	26.55928618
4.35519549	26.56003295
4.357627554	26.56076884
4.360059618	26.56149371
4.362491682	26.56220742
4.364923746	26.56290981
4.367355811	26.56360076
4.369787875	26.56428011
4.372219939	26.56494776
4.374652003	26.56560356
4.377084067	26.5662474
4.379516131	26.56687916
4.381948195	26.56749873
4.38438026	26.56810599
4.386812324	26.56870085
4.389244388	26.56928321
4.391676452	26.56985296
4.394108516	26.57041003
4.39654058	26.57095431
4.398972644	26.57148573
4.401404709	26.57200421
4.403836773	26.57250968
4.406268837	26.57300207
4.408700901	26.57348131
4.411132965	26.57394734
4.413565029	26.57440011
4.415997094	26.57483956
4.418429158	26.57526564
4.420861222	26.57567832
4.423293286	26.57607755
4.42572535	26.5764633
4.428157414	26.57683554
4.430589478	26.57719424
4.433021543	26.57753937
4.435453607	26.57787093
4.437885671	26.5781889
4.440317735	26.57849326
4.442749799	26.57878401
4.445181863	26.57906116
4.447613927	26.57932469
4.450045992	26.57957463
4.452478056	26.57981097
4.45491012	26.58003374
4.457342184	26.58024296
4.459774248	26.58043864
4.462206312	26.58062081
4.464638377	26.58078951
4.467070441	26.58094476
4.469502505	26.5810866
4.471934569	26.58121509
